<mxfile host="65bd71144e">
    <diagram id="1oGORLJcPQ6yI3thHihN" name="第 1 页">
        <mxGraphModel dx="894" dy="555" grid="0" gridSize="10" guides="1" tooltips="1" connect="1" arrows="1" fold="1" page="1" pageScale="1" pageWidth="1600" pageHeight="900" background="#ffffff" math="0" shadow="0">
            <root>
                <mxCell id="0"/>
                <mxCell id="1" parent="0"/>
                <mxCell id="2" value="11" style="rounded=0;whiteSpace=wrap;html=1;fillColor=#FFFFFF;strokeWidth=5;strokeColor=#000000;" vertex="1" parent="1">
                    <mxGeometry x="233" y="112" width="148" height="313" as="geometry"/>
                </mxCell>
                <mxCell id="3" value="" style="rounded=0;whiteSpace=wrap;html=1;fillColor=#FFFFFF;strokeWidth=5;strokeColor=#000000;" vertex="1" parent="1">
                    <mxGeometry x="509" y="112" width="222" height="313" as="geometry"/>
                </mxCell>
                <mxCell id="4" value="堆" style="text;html=1;align=center;verticalAlign=middle;resizable=0;points=[];autosize=1;strokeColor=none;fillColor=none;fontColor=#000000;" vertex="1" parent="1">
                    <mxGeometry x="600" y="66" width="30" height="26" as="geometry"/>
                </mxCell>
                <mxCell id="5" value="栈" style="text;html=1;align=center;verticalAlign=middle;resizable=0;points=[];autosize=1;strokeColor=none;fillColor=none;fontColor=#000000;" vertex="1" parent="1">
                    <mxGeometry x="294" y="66" width="30" height="26" as="geometry"/>
                </mxCell>
                <mxCell id="6" value="变量foo" style="text;html=1;strokeColor=none;fillColor=none;align=center;verticalAlign=middle;whiteSpace=wrap;rounded=0;strokeWidth=5;fontColor=#000000;" vertex="1" parent="1">
                    <mxGeometry x="272" y="126" width="60" height="30" as="geometry"/>
                </mxCell>
                <mxCell id="7" value="A：{bar:1}" style="text;html=1;strokeColor=none;fillColor=none;align=center;verticalAlign=middle;whiteSpace=wrap;rounded=0;strokeWidth=5;fontColor=#000000;" vertex="1" parent="1">
                    <mxGeometry x="585" y="126" width="60" height="30" as="geometry"/>
                </mxCell>
                <mxCell id="9" value="" style="endArrow=classic;html=1;fontColor=#000000;strokeColor=#000000;entryX=0;entryY=0.5;entryDx=0;entryDy=0;" edge="1" parent="1" source="6" target="7">
                    <mxGeometry width="50" height="50" relative="1" as="geometry">
                        <mxPoint x="431" y="316" as="sourcePoint"/>
                        <mxPoint x="481" y="266" as="targetPoint"/>
                    </mxGeometry>
                </mxCell>
                <mxCell id="10" value="变量arr1" style="text;html=1;strokeColor=none;fillColor=none;align=center;verticalAlign=middle;whiteSpace=wrap;rounded=0;strokeWidth=5;fontColor=#000000;" vertex="1" parent="1">
                    <mxGeometry x="272" y="167" width="60" height="30" as="geometry"/>
                </mxCell>
            </root>
        </mxGraphModel>
    </diagram>
</mxfile>